HIERARCHY
ROOT Hips
{
  OFFSET 5.72205e-005 65.662 3.42586
  CHANNELS 6 Xposition Yposition Zposition Zrotation Xrotation Yrotation
  JOINT Chest
  {
    OFFSET 0 8.7983 -4.7612
    CHANNELS 6 Xposition Yposition Zposition Zrotation Xrotation Yrotation
    JOINT Chest2
    {
      OFFSET 0 8.0291 0.4195
      CHANNELS 6 Xposition Yposition Zposition Zrotation Xrotation Yrotation
      JOINT Chest3
      {
        OFFSET 0 9.9351 -2.2114
        CHANNELS 6 Xposition Yposition Zposition Zrotation Xrotation Yrotation
        JOINT Neck
        {
          OFFSET 0 22.3885 -0.4656
          CHANNELS 6 Xposition Yposition Zposition Zrotation Xrotation Yrotation
          JOINT Head
          {
            OFFSET -0.0001 12.643 3.4389
            CHANNELS 6 Xposition Yposition Zposition Zrotation Xrotation Yrotation
            End Site
            {
              OFFSET 0.0001 17.6655 0.5274
            }
          }
        }
        JOINT LeftCollar
        {
          OFFSET 2.2603 21.606 7.4023
          CHANNELS 6 Xposition Yposition Zposition Zrotation Xrotation Yrotation
          JOINT LeftShoulder
          {
            OFFSET 13.5163 -1.1332 -5.0146
            CHANNELS 6 Xposition Yposition Zposition Zrotation Xrotation Yrotation
            JOINT LeftElbow
            {
              OFFSET -0.0995 -28.05 -0.2431
              CHANNELS 6 Xposition Yposition Zposition Zrotation Xrotation Yrotation
              JOINT LeftWrist
              {
                OFFSET 0.0679 -23.3996 -0.1402
                CHANNELS 6 Xposition Yposition Zposition Zrotation Xrotation Yrotation
                JOINT LeftFinger1
                {
                  OFFSET 0.7932 -9.069 2.5189
                  CHANNELS 6 Xposition Yposition Zposition Zrotation Xrotation Yrotation
                  JOINT LeftFinger11
                  {
                    OFFSET -0.8272 -3.3923 0.5977
                    CHANNELS 6 Xposition Yposition Zposition Zrotation Xrotation Yrotation
                    JOINT LeftFinger12
                    {
                      OFFSET -0.5649 -2.3158 0.4082
                      CHANNELS 6 Xposition Yposition Zposition Zrotation Xrotation Yrotation
                      End Site
                      {
                        OFFSET -0.4919 -1.6479 0.2673
                      }
                    }
                  }
                }
                JOINT LeftFinger2
                {
                  OFFSET 0.9159 -9.2044 0.2193
                  CHANNELS 6 Xposition Yposition Zposition Zrotation Xrotation Yrotation
                  JOINT LeftFinger21
                  {
                    OFFSET 0.0117 -4.1944 -0.0248
                    CHANNELS 6 Xposition Yposition Zposition Zrotation Xrotation Yrotation
                    JOINT LeftFinger22
                    {
                      OFFSET 0.0071 -2.3249 -0.0142
                      CHANNELS 6 Xposition Yposition Zposition Zrotation Xrotation Yrotation
                      End Site
                      {
                        OFFSET -0.1475 -2.0882 0.0028
                      }
                    }
                  }
                }
                JOINT LeftFinger3
                {
                  OFFSET 0.6113 -8.7231 -2.0637
                  CHANNELS 6 Xposition Yposition Zposition Zrotation Xrotation Yrotation
                  JOINT LeftFinger31
                  {
                    OFFSET -0.1927 -3.8059 -0.2383
                    CHANNELS 6 Xposition Yposition Zposition Zrotation Xrotation Yrotation
                    JOINT LeftFinger32
                    {
                      OFFSET -0.1091 -2.1688 -0.1362
                      CHANNELS 6 Xposition Yposition Zposition Zrotation Xrotation Yrotation
                      End Site
                      {
                        OFFSET -0.2358 -1.9176 -0.0906
                      }
                    }
                  }
                }
                JOINT LeftFinger4
                {
                  OFFSET -0.6151 -8.0947 -3.5641
                  CHANNELS 6 Xposition Yposition Zposition Zrotation Xrotation Yrotation
                  JOINT LeftFinger41
                  {
                    OFFSET -0.4882 -2.341 -0.6462
                    CHANNELS 6 Xposition Yposition Zposition Zrotation Xrotation Yrotation
                    JOINT LeftFinger42
                    {
                      OFFSET -0.3575 -1.7167 -0.4742
                      CHANNELS 6 Xposition Yposition Zposition Zrotation Xrotation Yrotation
                      End Site
                      {
                        OFFSET -0.4187 -1.5237 -0.3496
                      }
                    }
                  }
                }
                JOINT LeftFinger0
                {
                  OFFSET -1.42 -1.8761 1.4223
                  CHANNELS 6 Xposition Yposition Zposition Zrotation Xrotation Yrotation
                  JOINT LeftFinger01
                  {
                    OFFSET -1.1471 -3.4929 2.6334
                    CHANNELS 6 Xposition Yposition Zposition Zrotation Xrotation Yrotation
                    JOINT LeftFinger02
                    {
                      OFFSET -0.823 -2.3 1.6571
                      CHANNELS 6 Xposition Yposition Zposition Zrotation Xrotation Yrotation
                      End Site
                      {
                        OFFSET -0.5822 -1.6914 1.1582
                      }
                    }
                  }
                }
              }
            }
          }
        }
        JOINT RightCollar
        {
          OFFSET -2.2603 21.606 7.4023
          CHANNELS 6 Xposition Yposition Zposition Zrotation Xrotation Yrotation
          JOINT RightShoulder
          {
            OFFSET -13.5187 -1.1334 -5.0155
            CHANNELS 6 Xposition Yposition Zposition Zrotation Xrotation Yrotation
            JOINT RightElbow
            {
              OFFSET 0.0994 -28.0499 -0.2431
              CHANNELS 6 Xposition Yposition Zposition Zrotation Xrotation Yrotation
              JOINT RightWrist
              {
                OFFSET -0.0679 -23.3996 -0.1402
                CHANNELS 6 Xposition Yposition Zposition Zrotation Xrotation Yrotation
                JOINT RightFinger1
                {
                  OFFSET -0.7932 -9.0691 2.5189
                  CHANNELS 6 Xposition Yposition Zposition Zrotation Xrotation Yrotation
                  JOINT RightFinger11
                  {
                    OFFSET 0.8272 -3.3923 0.5977
                    CHANNELS 6 Xposition Yposition Zposition Zrotation Xrotation Yrotation
                    JOINT RightFinger12
                    {
                      OFFSET 0.565 -2.3158 0.4082
                      CHANNELS 6 Xposition Yposition Zposition Zrotation Xrotation Yrotation
                      End Site
                      {
                        OFFSET 0.4919 -1.6479 0.2673
                      }
                    }
                  }
                }
                JOINT RightFinger2
                {
                  OFFSET -0.916 -9.2044 0.2193
                  CHANNELS 6 Xposition Yposition Zposition Zrotation Xrotation Yrotation
                  JOINT RightFinger21
                  {
                    OFFSET -0.0117 -4.1944 -0.0248
                    CHANNELS 6 Xposition Yposition Zposition Zrotation Xrotation Yrotation
                    JOINT RightFinger22
                    {
                      OFFSET -0.0071 -2.3249 -0.0142
                      CHANNELS 6 Xposition Yposition Zposition Zrotation Xrotation Yrotation
                      End Site
                      {
                        OFFSET 0.1475 -2.0882 0.0028
                      }
                    }
                  }
                }
                JOINT RightFinger3
                {
                  OFFSET -0.6113 -8.7231 -2.0637
                  CHANNELS 6 Xposition Yposition Zposition Zrotation Xrotation Yrotation
                  JOINT RightFinger31
                  {
                    OFFSET 0.1927 -3.8059 -0.2383
                    CHANNELS 6 Xposition Yposition Zposition Zrotation Xrotation Yrotation
                    JOINT RightFinger32
                    {
                      OFFSET 0.1091 -2.1688 -0.1362
                      CHANNELS 6 Xposition Yposition Zposition Zrotation Xrotation Yrotation
                      End Site
                      {
                        OFFSET 0.2358 -1.9176 -0.0906
                      }
                    }
                  }
                }
                JOINT RightFinger4
                {
                  OFFSET 0.6151 -8.0947 -3.564
                  CHANNELS 6 Xposition Yposition Zposition Zrotation Xrotation Yrotation
                  JOINT RightFinger41
                  {
                    OFFSET 0.4882 -2.341 -0.6462
                    CHANNELS 6 Xposition Yposition Zposition Zrotation Xrotation Yrotation
                    JOINT RightFinger42
                    {
                      OFFSET 0.3574 -1.7166 -0.4742
                      CHANNELS 6 Xposition Yposition Zposition Zrotation Xrotation Yrotation
                      End Site
                      {
                        OFFSET 0.4187 -1.5237 -0.3496
                      }
                    }
                  }
                }
                JOINT RightFinger0
                {
                  OFFSET 1.4199 -1.8761 1.4221
                  CHANNELS 6 Xposition Yposition Zposition Zrotation Xrotation Yrotation
                  JOINT RightFinger01
                  {
                    OFFSET 1.1472 -3.4929 2.6336
                    CHANNELS 6 Xposition Yposition Zposition Zrotation Xrotation Yrotation
                    JOINT RightFinger02
                    {
                      OFFSET 0.8229 -2.3 1.6571
                      CHANNELS 6 Xposition Yposition Zposition Zrotation Xrotation Yrotation
                      End Site
                      {
                        OFFSET 0.5822 -1.6914 1.1582
                      }
                    }
                  }
                }
              }
            }
          }
        }
      }
    }
  }
  JOINT RightHip
  {
    OFFSET -9.412 3.9771 -0.7758
    CHANNELS 6 Xposition Yposition Zposition Zrotation Xrotation Yrotation
    JOINT RightKnee
    {
      OFFSET -0.7531 -40.938 0
      CHANNELS 6 Xposition Yposition Zposition Zrotation Xrotation Yrotation
      JOINT RightAnkle
      {
        OFFSET 0 -40.1986 0
        CHANNELS 6 Xposition Yposition Zposition Zrotation Xrotation Yrotation
        JOINT RightToe
        {
          OFFSET 0 -4.4182 9.239
          CHANNELS 6 Xposition Yposition Zposition Zrotation Xrotation Yrotation
          End Site
          {
            OFFSET 0 0 6.1981
          }
        }
      }
    }
  }
  JOINT LeftHip
  {
    OFFSET 9.4119 3.9773 -0.7758
    CHANNELS 6 Xposition Yposition Zposition Zrotation Xrotation Yrotation
    JOINT LeftKnee
    {
      OFFSET 0.7532 -40.9383 0
      CHANNELS 6 Xposition Yposition Zposition Zrotation Xrotation Yrotation
      JOINT LeftAnkle
      {
        OFFSET 0 -40.1986 0
        CHANNELS 6 Xposition Yposition Zposition Zrotation Xrotation Yrotation
        JOINT LeftToe
        {
          OFFSET 0 -4.4182 9.239
          CHANNELS 6 Xposition Yposition Zposition Zrotation Xrotation Yrotation
          End Site
          {
            OFFSET 0 0 6.1981
          }
        }
      }
    }
  }
}
MOTION
Frames:	4
Frame Time:	0.0333333
-16.5214 63.0017 -55.8825 0.634676 9.82306 -57.381 0 8.7983 -4.7612 0.641305 2.30127 3.36238 0 8.0291 0.4195 1.1477 4.6361 6.707 7.10543e-015 9.9351 -2.2114 1.14771 4.63611 6.70702 0 22.3885 -0.4656 -2.80967 9.4145 6.509 -0.0001 12.643 3.4389 5.83901e-007 -1.9825e-006 8.56135 2.2603 21.606 7.4023 -23.9699 -1.40297 -8.51225 13.5163 -1.1332 -5.0146 60.3758 20.26 23.0811 -0.0995 -28.05 -0.2431 -40.813 -36.6617 -32.8451 0.0679 -23.3996 -0.1402 -6.87915 1.26083 -0.13786 0.7932 -9.069 2.5189 3.18055e-015 3.18055e-015 3.18055e-015 -0.8272 -3.3923 0.5977 -1.07598e-006 1.51691e-006 -4.04111e-006 -0.5649 -2.3158 0.4082 4.77083e-015 1.11319e-014 1.90833e-014 0.9159 -9.2044 0.2193 3.18055e-015 3.18055e-015 3.18055e-015 0.0117 -4.1944 -0.0248 -0.0128607 0.0023361 7.56047e-005 0.0071 -2.3249 -0.0142 -3.18055e-015 1.59028e-015 -1.27222e-014 0.6113 -8.7231 -2.0637 3.18055e-015 3.18055e-015 3.18055e-015 -0.1927 -3.8059 -0.2383 -0.0160375 0.0029949 0.000861051 -0.1091 -2.1688 -0.1362 3.18055e-015 1.59028e-014 9.54166e-015 -0.6151 -8.0947 -3.5641 3.18055e-015 3.18055e-015 3.18055e-015 -0.4882 -2.341 -0.6462 -0.0126109 0.00312757 0.00282703 -0.3575 -1.7167 -0.4742 0 0 -3.18055e-015 -1.42 -1.8761 1.4223 3.18055e-015 3.18055e-015 3.18055e-015 -1.1471 -3.4929 2.6334 -1.07598e-006 1.51691e-006 -4.04111e-006 -0.823 -2.3 1.6571 4.77083e-015 1.11319e-014 1.90833e-014 -2.2603 21.606 7.4023 17.9325 -5.79531 24.8205 -13.5187 -1.1334 -5.0155 -96.743 -2.05504 -56.3396 0.0994 -28.0499 -0.2431 4.22135 -16.712 -8.32783 -0.0679 -23.3996 -0.1402 -18.7676 8.70531 -1.68467 -0.7932 -9.0691 2.5189 -1.76556e-031 3.18055e-015 3.18055e-015 0.8272 -3.3923 0.5977 7.39088e-006 -1.16639e-007 6.36254e-006 0.565 -2.3158 0.4082 2.64834e-031 -4.77083e-015 3.18055e-015 -0.916 -9.2044 0.2193 -1.76556e-031 3.18055e-015 3.18055e-015 -0.0117 -4.1944 -0.0248 0.0129342 0.00231509 -7.89103e-005 -0.0071 -2.3249 -0.0142 9.54166e-015 -4.77083e-015 -3.18055e-015 -0.6113 -8.7231 -2.0637 -1.76556e-031 3.18055e-015 3.18055e-015 0.1927 -3.8059 -0.2383 0.0163342 0.00303116 -0.000869952 0.1091 -2.1688 -0.1362 -9.54166e-015 -3.18055e-015 -0 0.6151 -8.0947 -3.564 -1.76556e-031 3.18055e-015 3.18055e-015 0.4882 -2.341 -0.6462 0.0146109 0.00368217 -0.00326967 0.3574 -1.7166 -0.4742 1.47263e-006 -1.79307e-007 -1.2645e-006 1.4199 -1.8761 1.4221 -1.76556e-031 3.18055e-015 3.18055e-015 1.1472 -3.4929 2.6336 7.39088e-006 -1.16639e-007 6.36254e-006 0.8229 -2.3 1.6571 2.64834e-031 -4.77083e-015 3.18055e-015 -9.412 3.9771 -0.7758 1.48624 -9.65067 -13.4281 -0.7531 -40.938 0 -1.49865 16.7352 -0.577225 0 -40.1986 -3.55271e-015 -11.501 -3.78939 0.131038 0 -4.4182 9.239 9.53695e-009 7.06146e-006 -9.10086e-006 9.4119 3.9773 -0.7758 19.5977 0.940209 5.30187 0.7532 -40.9383 3.55271e-015 -11.1465 12.9076 1.7684 0 -40.1986 0 -11.0755 -10.9316 36.4703 0 -4.4182 9.239 -7.95139e-016 -4.77083e-015 4.77083e-015 
-15.7761 62.631 -55.6422 0.595092 11.4696 -55.9259 7.10543e-015 8.7983 -4.7612 0.707661 3.2973 4.28995 7.10543e-015 8.0291 0.4195 1.16874 6.63818 8.56033 7.10543e-015 9.9351 -2.2114 1.16874 6.6382 8.56037 0 22.3885 -0.4656 -2.45267 8.93967 4.98343 -0.0001 12.643 3.4389 -7.82454e-006 2.87462e-006 8.4286 2.2603 21.606 7.4023 -23.8281 -1.39916 -8.48286 13.5163 -1.1332 -5.0146 60.6704 20.6137 22.9986 -0.0995 -28.05 -0.2431 -42.9544 -33.6442 -33.192 0.0679 -23.3996 -0.1402 -6.87951 1.26082 -0.137939 0.7932 -9.069 2.5189 -7.95139e-016 7.95139e-016 -3.18055e-015 -0.8272 -3.3923 0.5977 -5.47912e-006 3.74631e-006 6.02031e-007 -0.5649 -2.3158 0.4082 -7.95139e-016 3.97569e-015 6.36111e-015 0.9159 -9.2044 0.2193 -7.95139e-016 7.95139e-016 -3.18055e-015 0.0117 -4.1944 -0.0248 -0.012819 0.00232176 7.95829e-005 0.0071 -2.3249 -0.0142 2.38542e-015 -6.36111e-015 6.36111e-015 0.6113 -8.7231 -2.0637 -7.95139e-016 7.95139e-016 -3.18055e-015 -0.1927 -3.8059 -0.2383 -0.0160335 0.00298586 0.000847225 -0.1091 -2.1688 -0.1362 2.38542e-015 1.59028e-015 -6.36111e-015 -0.6151 -8.0947 -3.5641 -7.95139e-016 7.95139e-016 -3.18055e-015 -0.4882 -2.341 -0.6462 -0.0125507 0.00311017 0.00281483 -0.3575 -1.7167 -0.4742 -8.09473e-006 3.99881e-007 8.67606e-006 -1.42 -1.8761 1.4223 -7.95139e-016 7.95139e-016 -3.18055e-015 -1.1471 -3.4929 2.6334 -5.47912e-006 3.74631e-006 6.02031e-007 -0.823 -2.3 1.6571 -7.95139e-016 3.97569e-015 6.36111e-015 -2.2603 21.606 7.4023 17.6852 -5.97969 25.8929 -13.5187 -1.1334 -5.0155 -92.9903 -7.25506 -56.2751 0.0994 -28.0499 -0.2431 4.27627 -14.3407 -6.19123 -0.0679 -23.3996 -0.1402 -17.0706 8.09769 0.512681 -0.7932 -9.0691 2.5189 -3.18055e-015 0 6.36111e-015 0.8272 -3.3923 0.5977 0 3.18055e-015 -0 0.565 -2.3158 0.4082 -3.18055e-015 0 6.36111e-015 -0.916 -9.2044 0.2193 -3.18055e-015 0 6.36111e-015 -0.0117 -4.1944 -0.0248 0.0129885 0.00232157 -8.22061e-005 -0.0071 -2.3249 -0.0142 -1.59028e-015 -1.59028e-015 1.59028e-014 -0.6113 -8.7231 -2.0637 -3.18055e-015 0 6.36111e-015 0.1927 -3.8059 -0.2383 0.0162771 0.00302503 -0.000871722 0.1091 -2.1688 -0.1362 6.36111e-015 1.59028e-015 3.18055e-015 0.6151 -8.0947 -3.564 -3.18055e-015 0 6.36111e-015 0.4882 -2.341 -0.6462 0.0145849 0.00368017 -0.00326191 0.3574 -1.7166 -0.4742 1.59028e-015 -1.59028e-015 1.90833e-014 1.4199 -1.8761 1.4221 -3.18055e-015 0 6.36111e-015 1.1472 -3.4929 2.6336 0 3.18055e-015 -0 0.8229 -2.3 1.6571 -3.18055e-015 0 6.36111e-015 -9.412 3.9771 -0.7758 2.84429 -11.9686 -13.2964 -0.7531 -40.938 0 -2.69761 19.5934 -0.320182 -1.42109e-014 -40.1986 3.55271e-015 -11.1349 -3.9852 -1.4572 0 -4.4182 9.239 3.18998e-006 2.48432e-006 5.22652e-007 9.4119 3.9773 -0.7758 21.3984 -1.51681 6.65259 0.7532 -40.9383 0 -12.0959 15.0514 2.0947 3.55271e-015 -40.1986 0 -9.26762 -12.9065 33.933 -8.88178e-016 -4.4182 9.239 -2.10364e-007 -4.40983e-008 -3.46538e-008 
-15.0329 62.2648 -55.4031 0.512462 13.1128 -54.462 0 8.7983 -4.7612 0.765489 4.29075 5.225 7.10543e-015 8.0291 0.4195 1.13949 8.63329 10.4366 -7.10543e-015 9.9351 -2.2114 1.1395 8.63329 10.4366 0 22.3885 -0.4656 -2.10867 8.45502 3.46104 -0.0001 12.643 3.4389 3.71551e-006 1.22888e-005 8.29585 2.2603 21.606 7.4023 -23.6864 -1.3953 -8.45356 13.5163 -1.1332 -5.0146 60.9663 20.9671 22.9139 -0.0995 -28.05 -0.2431 -45.0009 -30.6245 -33.3963 0.0679 -23.3996 -0.1402 -6.87975 1.26086 -0.137958 0.7932 -9.069 2.5189 1.98785e-016 5.96354e-016 9.54166e-015 -0.8272 -3.3923 0.5977 7.55117e-006 -9.69191e-007 -2.2594e-006 -0.5649 -2.3158 0.4082 2.18663e-015 -9.93923e-016 3.18055e-015 0.9159 -9.2044 0.2193 1.98785e-016 5.96354e-016 9.54166e-015 0.0117 -4.1944 -0.0248 -0.0128369 0.00233307 0.000100555 0.0071 -2.3249 -0.0142 -1.98785e-016 1.98785e-016 -3.18055e-015 0.6113 -8.7231 -2.0637 1.98785e-016 5.96354e-016 9.54166e-015 -0.1927 -3.8059 -0.2383 -0.016049 0.00299683 0.000859669 -0.1091 -2.1688 -0.1362 -1.78906e-015 5.96354e-016 9.54166e-015 -0.6151 -8.0947 -3.5641 1.98785e-016 5.96354e-016 9.54166e-015 -0.4882 -2.341 -0.6462 -0.0125747 0.00311076 0.00283172 -0.3575 -1.7167 -0.4742 -1.98785e-016 -9.93923e-016 -3.18055e-015 -1.42 -1.8761 1.4223 1.98785e-016 5.96354e-016 9.54166e-015 -1.1471 -3.4929 2.6334 7.55117e-006 -9.69191e-007 -2.2594e-006 -0.823 -2.3 1.6571 2.18663e-015 -9.93923e-016 3.18055e-015 -2.2603 21.606 7.4023 17.4413 -6.16866 26.9647 -13.5187 -1.1334 -5.0155 -89.4108 -12.5032 -57.0513 0.0994 -28.0499 -0.2431 4.78065 -12.0487 -4.1128 -0.0679 -23.3996 -0.1402 -15.3561 7.55578 2.72112 -0.7932 -9.0691 2.5189 -1.19271e-015 7.55382e-015 -3.18055e-015 0.8272 -3.3923 0.5977 -3.57812e-015 4.37326e-015 -6.36111e-015 0.565 -2.3158 0.4082 1.19271e-015 4.37326e-015 6.36111e-015 -0.916 -9.2044 0.2193 -1.19271e-015 7.55382e-015 -3.18055e-015 -0.0117 -4.1944 -0.0248 0.0129947 0.00231179 -8.4602e-005 -0.0071 -2.3249 -0.0142 -3.18055e-015 2.38542e-015 -1.59028e-014 -0.6113 -8.7231 -2.0637 -1.19271e-015 7.55382e-015 -3.18055e-015 0.1927 -3.8059 -0.2383 0.0162958 0.00302819 -0.000871528 0.1091 -2.1688 -0.1362 3.18055e-015 -3.18055e-015 -0 0.6151 -8.0947 -3.564 -1.19271e-015 7.55382e-015 -3.18055e-015 0.4882 -2.341 -0.6462 0.0145992 0.00367361 -0.00326448 0.3574 -1.7166 -0.4742 1.19271e-015 1.59028e-015 -0 1.4199 -1.8761 1.4221 -1.19271e-015 7.55382e-015 -3.18055e-015 1.1472 -3.4929 2.6336 -3.57812e-015 4.37326e-015 -6.36111e-015 0.8229 -2.3 1.6571 1.19271e-015 4.37326e-015 6.36111e-015 -9.412 3.9771 -0.7758 4.24395 -14.2271 -13.1089 -0.7531 -40.938 0 -3.95503 22.34 0.0153648 0 -40.1986 0 -10.7519 -4.14321 -3.04254 0 -4.4182 9.239 6.36111e-015 -8.74653e-015 -0 9.4119 3.9773 -0.7758 23.2255 -4.00609 8.09335 0.7532 -40.9383 3.55271e-015 -13.0027 17.3332 2.4552 -3.55272e-015 -40.1986 0 -7.57431 -15.0279 31.4216 0 -4.4182 9.239 7.41965e-007 -2.55957e-006 1.25354e-006 
-14.2919 61.9031 -55.1649 0.386132 14.7503 -52.988 -7.10543e-015 8.7983 -4.7612 0.814732 5.27956 6.16625 7.10543e-015 8.0291 0.4195 1.05916 10.616 12.3363 0 9.9351 -2.2114 1.05916 10.616 12.3363 -3.55271e-015 22.3885 -0.4656 -1.77795 7.96112 1.94233 -0.0001 12.643 3.4389 -2.39608e-007 9.30913e-006 8.1631 2.2603 21.606 7.4023 -23.5446 -1.39139 -8.42426 13.5163 -1.1332 -5.0146 61.2634 21.3198 22.827 -0.0995 -28.05 -0.2431 -46.9684 -27.6123 -33.473 0.0679 -23.3996 -0.1402 -6.87993 1.26098 -0.137895 0.7932 -9.069 2.5189 -3.18055e-015 7.95139e-016 -3.18055e-015 -0.8272 -3.3923 0.5977 7.84179e-007 -9.69268e-007 -2.66398e-006 -0.5649 -2.3158 0.4082 -7.95139e-016 7.95139e-016 -3.18055e-015 0.9159 -9.2044 0.2193 -3.18055e-015 7.95139e-016 -3.18055e-015 0.0117 -4.1944 -0.0248 -0.0127862 0.00232216 8.66307e-005 0.0071 -2.3249 -0.0142 1.59028e-015 -3.97569e-015 9.54166e-015 0.6113 -8.7231 -2.0637 -3.18055e-015 7.95139e-016 -3.18055e-015 -0.1927 -3.8059 -0.2383 -0.0161226 0.00300694 0.000858672 -0.1091 -2.1688 -0.1362 2.38542e-015 -7.95139e-016 -6.36111e-015 -0.6151 -8.0947 -3.5641 -3.18055e-015 7.95139e-016 -3.18055e-015 -0.4882 -2.341 -0.6462 -0.0125554 0.00311302 0.00282594 -0.3575 -1.7167 -0.4742 -7.95139e-016 0 6.36111e-015 -1.42 -1.8761 1.4223 -3.18055e-015 7.95139e-016 -3.18055e-015 -1.1471 -3.4929 2.6334 7.84179e-007 -9.69268e-007 -2.66398e-006 -0.823 -2.3 1.6571 -7.95139e-016 7.95139e-016 -3.18055e-015 -2.2603 21.606 7.4023 17.2011 -6.36205 28.0356 -13.5187 -1.1334 -5.0155 -85.8121 -17.8025 -57.505 0.0994 -28.0499 -0.2431 5.20401 -9.731 -2.06705 -0.0679 -23.3996 -0.1402 -13.6287 7.08113 4.93622 -0.7932 -9.0691 2.5189 -3.97569e-015 -5.96354e-015 -1.27222e-014 0.8272 -3.3923 0.5977 3.18055e-015 -6.75868e-015 -1.27222e-014 0.565 -2.3158 0.4082 3.97569e-016 -4.37326e-015 -2.22639e-014 -0.916 -9.2044 0.2193 -3.97569e-015 -5.96354e-015 -1.27222e-014 -0.0117 -4.1944 -0.0248 0.0129626 0.00231881 -8.94025e-005 -0.0071 -2.3249 -0.0142 -3.97569e-016 1.19271e-015 -0 -0.6113 -8.7231 -2.0637 -3.97569e-015 -5.96354e-015 -1.27222e-014 0.1927 -3.8059 -0.2383 0.0164152 0.00305171 -0.000876616 0.1091 -2.1688 -0.1362 1.43125e-014 3.57812e-015 -3.18055e-015 0.6151 -8.0947 -3.564 -3.97569e-015 -5.96354e-015 -1.27222e-014 0.4882 -2.341 -0.6462 0.0144264 0.00363672 -0.00323702 0.3574 -1.7166 -0.4742 7.95139e-016 -3.18055e-015 -0 1.4199 -1.8761 1.4221 -3.97569e-015 -5.96354e-015 -1.27222e-014 1.1472 -3.4929 2.6336 3.18055e-015 -6.75868e-015 -1.27222e-014 0.8229 -2.3 1.6571 3.97569e-016 -4.37326e-015 -2.22639e-014 -9.412 3.9771 -0.7758 5.73002 -16.4352 -12.8595 -0.7531 -40.938 -3.55271e-015 -5.36768 24.974 0.463871 1.42109e-014 -40.1986 5.32907e-015 -10.3112 -4.26381 -4.6268 0 -4.4182 9.239 1.57142e-006 2.22574e-007 3.18913e-007 9.4119 3.9773 -0.7758 25.0999 -6.50467 9.6233 0.7532 -40.9383 -3.55271e-015 -13.9016 19.7217 2.85695 0 -40.1986 0 -5.98439 -17.2716 28.9433 -1.77636e-015 -4.4182 9.239 -2.20695e-032 -7.95139e-016 -1.59028e-015 
